#!OML:ASF X:\für Bonn\!DataBase\2005_08_12_Daniel\c3d\Daniel.ASF
:FULLY-SPECIFIED
:DEGREES
17
root -0.17012 16.7047 -0.794608 50.3666 -88.2838 -62.3741
lowerback 24.7021 -1.83793 3.37928
upperback 2.94501 -1.96961 -1.9467
thorax -10.6929 -1.21888 -3.45019
lowerneck 8.11046 1.89269 -1.52716
upperneck 3.6306 2.266 0.30284
head -0.236288 1.06032 0.284991
rclavicle -1.47101e-014 -8.74653e-015
rhumerus 59.0949 0.986639 -101.723
rradius 7.81831
rwrist 63.0118
rhand -19.914 6.88794
rfingers 7.12502
rthumb 6.42288 -22.9947
lclavicle -1.47101e-014 -8.74653e-015
lhumerus 63.072 4.79114 103.522
lradius 7.85632
lwrist -79.7685
lhand -15.5258 4.78099
lfingers 7.12502
lthumb 10.6576 34.4907
rfemur 2.26489 -4.16791 15.3926
rtibia 33.2988
rfoot -24.55 -1.33605
rtoes -15.2845
lfemur -7.59224 -1.42314 -12.1824
ltibia 45.6764
lfoot -29.1327 1.61914
ltoes -1.93334
18
root -0.139843 16.6512 -0.794935 47.1305 -88.2884 -59.2981
lowerback 25.2175 -1.85695 3.34195
upperback 3.00178 -1.99847 -1.94479
thorax -10.9035 -1.23665 -3.41075
lowerneck 8.18478 1.8929 -1.57093
upperneck 3.46427 2.26392 0.321981
head -0.301127 1.06065 0.29688
rclavicle -7.45443e-015 3.97569e-015
rhumerus 59.1588 1.05398 -101.535
rradius 7.88649
rwrist 62.5909
rhand -19.9794 6.98997
rfingers 7.12502
rthumb 6.3597 -22.8946
lclavicle -7.45443e-015 3.97569e-015
lhumerus 63.0726 4.70699 103.492
lradius 7.97021
lwrist -79.639
lhand -15.478 4.84788
lfingers 7.12502
lthumb 10.7037 34.5552
rfemur 1.43108 -5.12928 14.9435
rtibia 34.9138
rfoot -24.7456 -0.301842
rtoes -15.4137
lfemur -8.20588 -0.474038 -11.9179
ltibia 46.7561
lfoot -29.1291 0.62733
ltoes -1.91392
19
root -0.10733 16.5929 -0.795104 44.5004 -88.2574 -56.8398
lowerback 25.7493 -1.88222 3.33893
upperback 3.07252 -2.0262 -1.93727
thorax -11.1064 -1.25523 -3.38468
lowerneck 8.27467 1.88793 -1.58481
upperneck 3.26696 2.25772 0.325725
head -0.37774 1.05974 0.299057
rclavicle -9.74045e-015 1.11319e-014
rhumerus 59.2793 1.13315 -101.362
rradius 7.92961
rwrist 62.1716
rhand -19.9673 7.04033
rfingers 7.12502
rthumb 6.37139 -22.8438
lclavicle -9.74045e-015 1.11319e-014
lhumerus 63.1271 4.61076 103.453
lradius 8.04862
lwrist -79.5303
lhand -15.5113 4.82733
lfingers 7.12502
lthumb 10.6716 34.5363
rfemur 0.538377 -6.13557 14.5147
rtibia 36.6501
rfoot -24.9388 0.756671
rtoes -15.5588
lfemur -8.85632 0.4532 -11.6206
ltibia 47.9018
lfoot -29.1109 -0.347236
ltoes -1.7502
20
root -0.0744285 16.5303 -0.79486 41.4775 -88.2582 -53.9996
lowerback 26.3168 -1.89408 3.29637
upperback 3.14223 -2.04725 -1.92869
thorax -11.3262 -1.26932 -3.33611
lowerneck 8.32243 1.88054 -1.618
upperneck 3.09174 2.2475 0.332656
head -0.440938 1.05659 0.305936
rclavicle 2.08724e-015 -5.56597e-015
rhumerus 59.4402 1.20549 -101.16
rradius 7.95921
rwrist 61.9023
rhand -19.8579 7.09998
rfingers 7.12502
rthumb 6.47699 -22.781
lclavicle 2.08724e-015 -5.56597e-015
lhumerus 63.1943 4.50199 103.444
lradius 8.1131
lwrist -79.3958
lhand -15.5088 4.80053
lfingers 7.12502
lthumb 10.674 34.5094
rfemur -0.424879 -7.12598 14.0367
rtibia 38.5107
rfoot -25.1398 1.77161
rtoes -15.6098
lfemur -9.50756 1.34605 -11.3792
ltibia 49.1013
lfoot -29.1555 -1.26776
ltoes -1.68966
21
root -0.0402672 16.4634 -0.793821 38.5098 -88.2305 -51.1919
lowerback 26.9279 -1.92468 3.29156
upperback 3.18899 -2.08112 -1.92814
thorax -11.5966 -1.29195 -3.31311
lowerneck 8.30337 1.87473 -1.60495
upperneck 2.93545 2.24531 0.332076
head -0.486542 1.05818 0.303249
rclavicle -9.0944e-015 -1.82882e-014
rhumerus 59.6392 1.29064 -100.989
rradius 7.96424
rwrist 61.6986
rhand -19.6819 7.08286
rfingers 7.12502
rthumb 6.64688 -22.7928
lclavicle -9.0944e-015 -1.82882e-014
lhumerus 63.3073 4.41243 103.397
lradius 8.09614
lwrist -79.2781
lhand -15.5682 4.72522
lfingers 7.12502
lthumb 10.6167 34.437
rfemur -1.45817 -8.11067 13.5813
rtibia 40.4614
rfoot -25.3327 2.77375
rtoes -15.8062
lfemur -10.2292 2.1876 -11.1277
ltibia 50.3576
lfoot -29.1974 -2.20604
ltoes -1.53119
22
root -0.00635548 16.3911 -0.792326 36.0936 -88.2088 -48.9555
lowerback 27.5816 -1.95665 3.27282
upperback 3.23447 -2.11793 -1.90895
thorax -11.8885 -1.31512 -3.25862
lowerneck 8.22072 1.87986 -1.64213
upperneck 2.81311 2.25453 0.335418
head -0.511752 1.06487 0.310343
rclavicle -6.16232e-015 -1.11319e-014
rhumerus 59.8854 1.40627 -100.794
rradius 7.90913
rwrist 61.583
rhand -19.5308 7.06038
rfingers 7.12502
rthumb 6.79272 -22.8107
lclavicle -6.16232e-015 -1.11319e-014
lhumerus 63.4492 4.34438 103.378
lradius 8.06084
lwrist -79.1606
lhand -15.592 4.61956
lfingers 7.12502
lthumb 10.5938 34.3325
rfemur -2.52768 -9.04206 13.1324
rtibia 42.4948
rfoot -25.5392 3.75343
rtoes -15.9261
lfemur -10.9488 3.01802 -10.88
ltibia 51.664
lfoot -29.2696 -3.10633
ltoes -1.44894
23
root 0.0268454 16.315 -0.79081 34.1425 -88.1769 -47.1759
lowerback 28.2386 -1.98682 3.28181
upperback 3.27898 -2.14517 -1.89794
thorax -12.1821 -1.33539 -3.23263
lowerneck 8.08862 1.86343 -1.58966
upperneck 2.71588 2.24392 0.285443
head -0.518631 1.06303 0.287304
rclavicle 6.85807e-015 5.1684e-015
rhumerus 60.1895 1.49697 -100.61
rradius 7.82842
rwrist 61.5907
rhand -19.3667 7.03273
rfingers 7.12502
rthumb 6.95118 -22.8331
lclavicle 6.85807e-015 5.1684e-015
lhumerus 63.6614 4.23653 103.35
lradius 7.92541
lwrist -79.0722
lhand -15.6486 4.51238
lfingers 7.12502
lthumb 10.5391 34.2282
rfemur -3.64279 -9.92371 12.7228
rtibia 44.5803
rfoot -25.7567 4.58951
rtoes -16.0692
lfemur -11.6963 3.8065 -10.6268
ltibia 53.0213
lfoot -29.3344 -3.94247
ltoes -1.36554
24
root 0.058601 16.2342 -0.789311 32.322 -88.1476 -45.52
lowerback 28.8928 -2.01143 3.29483
upperback 3.31342 -2.16288 -1.88428
thorax -12.4835 -1.35139 -3.20929
lowerneck 7.92879 1.85653 -1.59052
upperneck 2.63905 2.24187 0.295422
head -0.516149 1.06418 0.291514
rclavicle 7.05686e-015 1.78906e-014
rhumerus 60.4806 1.57393 -100.413
rradius 7.76287
rwrist 61.6603
rhand -19.2176 6.99239
rfingers 7.12502
rthumb 7.09511 -22.8687
lclavicle 7.05686e-015 1.78906e-014
lhumerus 63.8696 4.11812 103.335
lradius 7.76457
lwrist -79.0077
lhand -15.7566 4.44019
lfingers 7.12502
lthumb 10.4349 34.1612
rfemur -4.79719 -10.7233 12.3272
rtibia 46.7198
rfoot -25.9497 5.44195
rtoes -16.0557
lfemur -12.4725 4.56357 -10.3779
ltibia 54.4254
lfoot -29.4156 -4.79601
ltoes -1.23777
25
root 0.0882336 16.1481 -0.787757 30.8153 -88.1283 -44.1867
lowerback 29.6246 -2.03905 3.30431
upperback 2.97675 -2.18593 -1.99046
thorax -12.4715 -1.34172 -3.0776
lowerneck 7.74641 1.84735 -1.56475
upperneck 2.55841 2.23965 0.280859
head -0.510351 1.06589 0.283967
rclavicle 2.75317e-014 1.74931e-014
rhumerus 60.8096 1.6521 -100.221
rradius 7.66501
rwrist 61.7291
rhand -19.0983 6.95138
rfingers 7.12502
rthumb 7.21024 -22.9058
lclavicle 2.75317e-014 1.74931e-014
lhumerus 64.0995 3.99649 103.315
lradius 7.59411
lwrist -78.9205
lhand -15.8588 4.32018
lfingers 7.12502
lthumb 10.3364 34.0462
rfemur -5.96842 -11.4686 11.9367
rtibia 48.9062
rfoot -26.0715 6.25387
rtoes -16.1168
lfemur -13.2613 5.28998 -10.136
ltibia 55.8808
lfoot -29.4792 -5.61992
ltoes -1.04679
26
root 0.117488 16.0571 -0.786948 29.3634 -88.1038 -42.9253
lowerback 30.2822 -2.05706 3.29472
upperback 2.99213 -2.20093 -1.96736
thorax -12.742 -1.35351 -3.02577
lowerneck 7.6726 1.8379 -1.54384
upperneck 2.40271 2.23437 0.25658
head -0.546087 1.06639 0.273208
rclavicle -2.23136e-014 -5.1684e-015
rhumerus 61.1326 1.74969 -100.019
rradius 7.5471
rwrist 61.7687
rhand -19.0906 6.92024
rfingers 7.12502
rthumb 7.21769 -22.9367
lclavicle -2.23136e-014 -5.1684e-015
lhumerus 64.3191 3.90992 103.298
lradius 7.42318
lwrist -78.8291
lhand -16.0337 4.1966
lfingers 7.12502
lthumb 10.1676 33.9309
rfemur -7.16471 -12.2048 11.5502
rtibia 51.1542
rfoot -26.0155 7.05495
rtoes -15.9854
lfemur -14.0717 5.99979 -9.88093
ltibia 57.3895
lfoot -29.5447 -6.44101
ltoes -0.907108
27
root 0.149061 15.959 -0.784887 28.5055 -88.08 -42.2313
lowerback 30.947 -2.08404 3.31335
upperback 2.98581 -2.21727 -1.94926
thorax -13.0384 -1.36745 -2.9938
lowerneck 7.58549 1.83034 -1.50182
upperneck 2.25011 2.23336 0.210801
head -0.57809 1.0694 0.252364
rclavicle -1.95803e-014 -9.93923e-015
rhumerus 61.4212 1.85196 -99.8321
rradius 7.45775
rwrist 61.7778
rhand -19.1826 6.90678
rfingers 7.12502
rthumb 7.12887 -22.9532
lclavicle -1.95803e-014 -9.93923e-015
lhumerus 64.5136 3.82649 103.272
lradius 7.27686
lwrist -78.7108
lhand -16.1522 4.05163
lfingers 7.12502
lthumb 10.0533 33.7915
rfemur -8.45039 -12.8991 11.1833
rtibia 53.4676
rfoot -25.7844 7.85635
rtoes -15.6811
lfemur -14.9605 6.64622 -9.62583
ltibia 58.9778
lfoot -29.6147 -7.25827
ltoes -0.604364
28
root 0.18112 15.8538 -0.784555 26.9919 -88.0738 -40.8781
lowerback 31.6289 -2.09461 3.29602
upperback 2.96938 -2.22446 -1.93532
thorax -13.3489 -1.37558 -2.94996
lowerneck 7.47442 1.82625 -1.51251
upperneck 2.10545 2.23351 0.233616
head -0.605279 1.07181 0.261428
rclavicle -4.37326e-015 -1.94809e-014
rhumerus 61.707 1.92095 -99.6275
rradius 7.3685
rwrist 61.6652
rhand -19.2996 6.94171
rfingers 7.12502
rthumb 7.01593 -22.922
lclavicle -4.37326e-015 -1.94809e-014
lhumerus 64.7022 3.73827 103.246
lradius 7.13279
lwrist -78.628
lhand -16.3763 3.91708
lfingers 7.12502
lthumb 9.83715 33.6673
rfemur -9.79033 -13.5475 10.7965
rtibia 55.8685
rfoot -25.4305 8.64527
rtoes -15.3996
lfemur -15.906 7.26367 -9.4036
ltibia 60.6525
lfoot -29.7201 -8.05735
ltoes -0.349674
29
root 0.214429 15.7389 -0.784286 26.1614 -88.0695 -40.2116
lowerback 32.3411 -2.1069 3.29103
upperback 2.94258 -2.2288 -1.92161
thorax -13.681 -1.38326 -2.91354
lowerneck 7.34819 1.81579 -1.47663
upperneck 1.94853 2.22914 0.206292
head -0.632375 1.07304 0.247623
rclavicle 4.96962e-016 -5.96354e-015
rhumerus 61.952 2.00442 -99.4442
rradius 7.32772
rwrist 61.493
rhand -19.4624 6.96868
rfingers 7.12502
rthumb 6.85876 -22.9002
lclavicle 4.96962e-016 -5.96354e-015
lhumerus 64.8594 3.65286 103.21
lradius 7.03746
lwrist -78.5182
lhand -16.5597 3.80929
lfingers 7.12502
lthumb 9.66021 33.5678
rfemur -11.1969 -14.1501 10.4375
rtibia 58.3576
rfoot -25.0581 9.46568
rtoes -15.1406
lfemur -16.9128 7.90306 -9.15394
ltibia 62.4337
lfoot -29.8429 -8.82582
ltoes -0.183003
30
root 0.24745 15.6123 -0.783792 25.0238 -88.0811 -39.233
lowerback 33.0437 -2.11399 3.26901
upperback 2.89795 -2.23249 -1.91278
thorax -14.026 -1.38964 -2.87383
lowerneck 7.48285 1.80823 -1.49143
upperneck 1.51577 2.22167 0.229317
head -0.791818 1.07365 0.254578
rclavicle -2.05742e-014 -1.63003e-014
rhumerus 62.1628 2.05939 -99.2474
rradius 7.29923
rwrist 61.2558
rhand -19.6473 7.06799
rfingers 7.12502
rthumb 6.68028 -22.8066
lclavicle -2.05742e-014 -1.63003e-014
lhumerus 64.9746 3.59527 103.161
lradius 6.95445
lwrist -78.3737
lhand -16.7748 3.68044
lfingers 7.12502
lthumb 9.4526 33.4485
rfemur -12.6778 -14.7143 10.0573
rtibia 60.9492
rfoot -24.6273 10.2676
rtoes -14.8717
lfemur -17.9776 8.48676 -8.93121
ltibia 64.3101
lfoot -29.9988 -9.56658
ltoes -0.0404251
31
root 0.280536 15.4791 -0.784013 24.4987 -88.0892 -38.8719
lowerback 33.7461 -2.10872 3.23641
upperback 2.86129 -2.21869 -1.86275
thorax -14.3541 -1.38638 -2.79108
lowerneck 7.57072 1.80784 -1.58394
upperneck 1.14311 2.21732 0.257112
head -0.926331 1.07485 0.276519
rclavicle -8.54774e-015 -8.74653e-015
rhumerus 62.368 2.15744 -99.0085
rradius 7.29967
rwrist 60.9907
rhand -19.8125 7.1602
rfingers 7.12502
rthumb 6.52079 -22.7194
lclavicle -8.54774e-015 -8.74653e-015
lhumerus 65.0714 3.56713 103.162
lradius 6.94511
lwrist -78.2962
lhand -16.9785 3.60222
lfingers 7.12502
lthumb 9.25606 33.379
rfemur -14.2135 -15.2555 9.70362
rtibia 63.6262
rfoot -24.1837 11.0049
rtoes -14.7351
lfemur -19.0968 9.07849 -8.67702
ltibia 66.2653
lfoot -30.1392 -10.3167
ltoes 0.17432
